<?xml version="1.0" encoding="utf-8"?>
<!DOCTYPE svg PUBLIC "-//W3C//DTD SVG 1.1//EN" "http://www.w3.org/Graphics/SVG/1.1/DTD/svg11.dtd">
<svg xmlns="http://www.w3.org/2000/svg"

	width="200" height="62"
	version="1.1">
	<defs>
		<clipPath id="clip_box">
    		<rect x="0" y="0" width="150" height="62" />
		</clipPath>
		<linearGradient id="fieldGradient"
			gradientUnits="userSpaceOnUse"
			x1="42.9863" y1="7.01270"
			x2="22.0144" y2="51.9871">
			<stop offset="0.0" stop-color="#BCBCBC" />
			<stop offset="1.0" stop-color="#676767" />
		</linearGradient>
		<linearGradient id="edgeGradient"
			gradientUnits="userSpaceOnUse"
			x1="55.4541" y1="42.7529"
			x2="9.54710" y2="16.2485">
			<stop offset="0.0" stop-color="#333333" />
			<stop offset="1.0" stop-color="#BBBBBB" />
		</linearGradient>
		<linearGradient id="pressFieldGradient"
			gradientUnits="userSpaceOnUse"
			x1="55.4541" y1="42.7529"
			x2="9.54710" y2="16.2485">
			<stop offset="0.0" stop-color="#CCCCCC" />
			<stop offset="1.0" stop-color="#878787" />
		</linearGradient>
		<radialGradient id="shadowGradient">
			<stop offset="0.0" stop-color="#C0C0C0" />
			<stop offset="0.88" stop-color="#C0C0C0" />
			<stop offset="1.0" stop-color="#C0C0C0" stop-opacity="0.0" />
		</radialGradient>
	</defs>
	<g id="I_box" opacity="0.3">
		<g clip-path="url(#clip_box)">
			<g id="I_text_box" transform="translate(150,0)">
				<rect x="2" y="22" width="180" height="18" rx="6" ry="6"
				fill="rgb(255,255,255)" stroke="rgb(0,0,0)" stroke-width="2" opacity="0.7" />
				<text id="I_text" x="8" y="36" font-family="monospace" font-size="14"></text>
			</g>
		</g>
		<g id="I_icon" transform="translate(140,0)">
			<circle id="shadow" r="26.5" cx="32.5" cy="29.5"
				fill="url(#shadowGradient)"
				transform="matrix(1.0648,0.0,0.0,1.064822,-2.1,1.0864)" />
			<circle id="field" r="25.8" cx="31" cy="31"
				fill="url(#fieldGradient)" stroke="url(#edgeGradient)" stroke-width="2" />
			<g id="info" fill="white">
				<polygon points="23,25 35,25 35,44 39,44 39,48 23,48 23,44 27,44 27,28 23,28 23,25" />
				<circle r="4" cx="31" cy="17" />
			</g>
		</g>
	</g>
</svg>
